<svg width="80" height="63" viewBox="0 0 80 63" fill="none" xmlns="http://www.w3.org/2000/svg">
<path d="M39.5833 14V0H0V63H79.1667V14H39.5833ZM15.8333 56H7.91667V49H15.8333V56ZM15.8333 42H7.91667V35H15.8333V42ZM15.8333 28H7.91667V21H15.8333V28ZM15.8333 14H7.91667V7H15.8333V14ZM31.6667 56H23.75V49H31.6667V56ZM31.6667 42H23.75V35H31.6667V42ZM31.6667 28H23.75V21H31.6667V28ZM31.6667 14H23.75V7H31.6667V14ZM71.25 56H39.5833V49H47.5V42H39.5833V35H47.5V28H39.5833V21H71.25V56ZM63.3333 28H55.4167V35H63.3333V28ZM63.3333 42H55.4167V49H63.3333V42Z" fill="#9D1111"/>
</svg>
