<svg width="740" height="664" viewBox="0 0 740 664" fill="none" xmlns="http://www.w3.org/2000/svg">
<path opacity="0.1" d="M973 645.89C973 652.494 948.647 658.682 906.15 664H102.339C66.5762 664.071 31.4307 655.294 0.476084 638.561L0 638.31C12.2128 634.152 34.258 630.275 64.2622 626.775L65.6077 626.62C79.0625 625.083 94.1009 623.623 110.536 622.241C110.95 622.241 111.375 622.183 111.789 622.134C124.83 621.051 138.702 620.036 153.405 619.089C153.871 619.089 154.327 619.011 154.792 618.992C160.464 618.612 166.253 618.251 172.159 617.909L174.436 617.774C217.44 615.279 266.322 613.287 319.334 611.972H319.396C326.821 611.779 334.324 611.608 341.907 611.46C350.339 611.273 358.874 611.109 367.513 610.967C374.106 610.832 380.781 610.735 387.478 610.638H387.633C417.844 610.213 449.059 610 480.978 610C559.906 610 634.508 611.344 700.612 613.761H700.799C710.962 614.129 720.94 614.535 730.669 614.95L738.948 615.318C749.926 615.808 760.621 616.333 771.033 616.894C893.472 623.401 973 633.969 973 645.89Z" fill="#6C63FF"/>
<g opacity="0.2">
<path opacity="0.2" d="M574.809 606.023C574.775 607.059 574.647 608.091 574.426 609.107C567.225 608.044 559.982 607.083 552.699 606.224C552.699 605.955 552.699 605.677 552.699 605.398C552.766 602.517 553.659 599.704 555.285 597.249C557.416 594.117 560.655 592.156 564.224 592.262C567.794 592.368 570.887 594.511 572.801 597.749C574.249 600.293 574.942 603.148 574.809 606.023Z" fill="#3F3D56"/>
<path opacity="0.2" d="M575.403 589.602C575.656 582.17 570.907 576.001 564.796 575.821C558.685 575.642 553.526 581.521 553.273 588.952C553.02 596.384 557.769 602.554 563.88 602.733C569.991 602.913 575.15 597.034 575.403 589.602Z" fill="#3F3D56"/>
<path opacity="0.2" d="M575.967 573.15C576.22 565.719 571.471 559.549 565.36 559.37C559.249 559.19 554.09 565.069 553.837 572.501C553.584 579.932 558.334 586.102 564.445 586.282C570.556 586.461 575.714 580.582 575.967 573.15Z" fill="#3F3D56"/>
<path opacity="0.2" d="M576.521 556.699C576.774 549.267 572.025 543.097 565.914 542.918C559.803 542.739 554.644 548.618 554.391 556.049C554.139 563.481 558.888 569.651 564.999 569.83C571.11 570.009 576.269 564.13 576.521 556.699Z" fill="#3F3D56"/>
<path opacity="0.2" d="M577.076 540.247C577.328 532.816 572.579 526.646 566.468 526.466C560.357 526.287 555.198 532.166 554.946 539.598C554.693 547.029 559.442 553.199 565.553 553.378C571.664 553.558 576.823 547.679 577.076 540.247Z" fill="#3F3D56"/>
<path opacity="0.2" d="M528.354 426.097C526.897 424.265 525.583 422.338 524.422 420.332L553.661 416.747L522.187 416.046C519.379 409.858 517.958 403.204 518.014 396.489C518.069 389.774 519.598 383.141 522.508 376.994L564.017 398.567L525.995 370.853C529.83 365.091 534.904 360.126 540.899 356.267C546.893 352.408 553.68 349.738 560.836 348.425C567.991 347.112 575.361 347.183 582.486 348.634C589.611 350.085 596.336 352.885 602.244 356.859C608.151 360.832 613.112 365.895 616.818 371.729C620.524 377.564 622.895 384.046 623.783 390.77C624.671 397.493 624.056 404.315 621.978 410.809C619.899 417.302 616.402 423.328 611.703 428.509C613.97 431.359 615.895 434.43 617.446 437.667L579.071 454.772L619.763 443.404C622.326 451.257 622.739 459.58 620.965 467.619C619.19 475.658 615.285 483.158 609.603 489.442C615.511 496.887 619.044 505.725 619.798 514.947C620.552 524.169 618.496 533.401 613.866 541.589C609.237 549.777 602.219 556.59 593.617 561.248C585.015 565.906 575.175 568.222 565.222 567.93C555.27 567.639 545.606 564.752 537.337 559.6C529.068 554.448 522.527 547.238 518.461 538.796C514.396 530.353 512.971 521.018 514.349 511.859C515.727 502.7 519.852 494.085 526.253 487.001C519.195 478.104 515.562 467.262 515.937 456.217C516.312 445.171 520.675 434.563 528.323 426.097H528.354Z" fill="#6C63FF"/>
<path opacity="0.1" d="M622.019 459.326C621.656 470.378 617.281 480.992 609.603 489.442C615.511 496.887 619.044 505.725 619.798 514.947C620.552 524.169 618.496 533.401 613.866 541.589C609.237 549.777 602.219 556.59 593.617 561.248C585.015 565.906 575.175 568.222 565.222 567.93C555.27 567.639 545.606 564.752 537.337 559.6C529.068 554.448 522.527 547.238 518.461 538.796C514.396 530.353 512.971 521.018 514.349 511.859C515.727 502.7 519.852 494.086 526.253 487.001C519.456 478.42 622.205 453.801 622.019 459.326Z" fill="black"/>
</g>
<g opacity="0.2">
<path opacity="0.2" d="M417.545 606.023C417.512 607.059 417.384 608.091 417.162 609.107C409.961 608.044 402.719 607.083 395.435 606.224C395.435 605.955 395.435 605.677 395.435 605.398C395.502 602.517 396.395 599.704 398.022 597.249C400.153 594.117 403.391 592.156 406.961 592.262C410.53 592.368 413.624 594.511 415.538 597.749C416.986 600.293 417.678 603.148 417.545 606.023Z" fill="#3F3D56"/>
<path opacity="0.2" d="M418.128 589.606C418.381 582.174 413.632 576.005 407.521 575.825C401.41 575.646 396.251 581.525 395.998 588.956C395.745 596.388 400.494 602.558 406.605 602.737C412.716 602.917 417.875 597.038 418.128 589.606Z" fill="#3F3D56"/>
<path opacity="0.2" d="M418.692 573.154C418.945 565.723 414.196 559.553 408.085 559.374C401.974 559.194 396.815 565.073 396.563 572.505C396.31 579.936 401.059 586.106 407.17 586.285C413.281 586.465 418.44 580.586 418.692 573.154Z" fill="#3F3D56"/>
<path opacity="0.2" d="M419.247 556.703C419.499 549.271 414.75 543.101 408.639 542.922C402.528 542.743 397.369 548.622 397.117 556.053C396.864 563.485 401.613 569.655 407.724 569.834C413.835 570.013 418.994 564.134 419.247 556.703Z" fill="#3F3D56"/>
<path opacity="0.2" d="M419.801 540.251C420.054 532.82 415.305 526.65 409.194 526.47C403.083 526.291 397.924 532.17 397.671 539.602C397.418 547.033 402.167 553.203 408.278 553.382C414.389 553.562 419.548 547.683 419.801 540.251Z" fill="#3F3D56"/>
<path opacity="0.2" d="M371.09 426.097C369.633 424.265 368.319 422.338 367.159 420.332L396.397 416.747L364.924 416.046C362.115 409.858 360.695 403.204 360.75 396.489C360.805 389.774 362.335 383.141 365.245 376.994L406.754 398.567L368.731 370.853C372.567 365.091 377.641 360.126 383.635 356.267C389.63 352.408 396.417 349.738 403.572 348.425C410.728 347.112 418.098 347.183 425.223 348.634C432.347 350.085 439.073 352.885 444.98 356.859C450.887 360.832 455.849 365.895 459.555 371.729C463.261 377.564 465.632 384.046 466.52 390.77C467.407 397.493 466.793 404.315 464.714 410.809C462.636 417.302 459.138 423.328 454.44 428.509C456.706 431.359 458.632 434.43 460.182 437.667L421.808 454.772L462.5 443.404C465.062 451.257 465.475 459.58 463.701 467.619C461.927 475.658 458.022 483.158 452.34 489.442C458.247 496.887 461.78 505.725 462.534 514.947C463.288 524.169 461.233 533.401 456.603 541.589C451.973 549.777 444.956 556.59 436.354 561.248C427.751 565.906 417.911 568.222 407.959 567.93C398.006 567.639 388.343 564.752 380.074 559.6C371.804 554.448 365.263 547.238 361.198 538.796C357.133 530.353 355.708 521.018 357.086 511.859C358.463 502.7 362.589 494.085 368.99 487.001C361.932 478.104 358.298 467.262 358.674 456.217C359.049 445.171 363.411 434.563 371.059 426.097H371.09Z" fill="#6C63FF"/>
<path opacity="0.1" d="M464.755 459.326C464.393 470.378 460.017 480.992 452.34 489.442C458.247 496.887 461.78 505.725 462.534 514.947C463.288 524.169 461.233 533.401 456.603 541.589C451.973 549.777 444.956 556.59 436.354 561.248C427.751 565.906 417.911 568.222 407.959 567.93C398.006 567.639 388.343 564.752 380.074 559.6C371.804 554.448 365.263 547.238 361.198 538.796C357.133 530.353 355.708 521.018 357.086 511.859C358.463 502.7 362.589 494.086 368.99 487.001C362.192 478.42 464.941 453.801 464.755 459.326Z" fill="black"/>
</g>
<g opacity="0.2">
<path opacity="0.2" d="M757.679 270.157C754.887 266.629 752.36 262.927 750.116 259.077L806.399 252.178L745.822 250.823C740.411 238.912 737.673 226.101 737.777 213.174C737.88 200.246 740.822 187.475 746.422 175.639L826.347 217.161L753.157 163.81C760.558 152.744 770.333 143.212 781.873 135.809C793.414 128.405 806.472 123.288 820.235 120.777C833.998 118.267 848.17 118.415 861.869 121.214C875.567 124.013 888.498 129.403 899.855 137.047C911.213 144.691 920.753 154.425 927.883 165.644C935.012 176.863 939.577 189.325 941.293 202.254C943.009 215.183 941.84 228.301 937.858 240.792C933.877 253.283 927.168 264.879 918.15 274.856C922.508 280.347 926.217 286.259 929.21 292.489L855.327 325.439L933.659 303.53C938.595 318.631 939.399 334.636 935.997 350.098C932.596 365.559 925.096 379.989 914.177 392.08C925.548 406.413 932.347 423.427 933.797 441.18C935.247 458.932 931.289 476.705 922.376 492.466C913.462 508.228 899.954 521.341 883.394 530.308C866.834 539.275 847.892 543.733 828.733 543.172C809.573 542.611 790.971 537.053 775.052 527.136C759.134 517.218 746.541 503.34 738.714 487.088C730.888 470.837 728.143 452.867 730.794 435.235C733.445 417.603 741.385 401.02 753.706 387.381C740.125 370.254 733.134 349.386 733.855 328.126C734.575 306.866 742.966 286.447 757.679 270.147V270.157Z" fill="#6C63FF"/>
<path opacity="0.1" d="M938.015 334.117C937.337 355.381 928.952 375.811 914.219 392.099C925.59 406.432 932.389 423.447 933.839 441.199C935.289 458.951 931.331 476.724 922.418 492.486C913.505 508.247 899.996 521.361 883.436 530.327C866.876 539.294 847.934 543.752 828.775 543.191C809.616 542.63 791.013 537.073 775.095 527.155C759.176 517.237 746.583 503.359 738.757 487.107C730.93 470.856 728.185 452.887 730.836 435.255C733.488 417.622 741.427 401.039 753.748 387.401C740.567 370.863 938.378 323.479 938.015 334.117Z" fill="black"/>
</g>
<path d="M34 618L44.8484 617.971H60.1437L79.4827 326.166L271 29.317L262.675 21.0175V0L55.552 319.288L34 618Z" fill="#F1C0C0"/>
<path opacity="0.1" d="M46 618H60.1375L79.477 326.172L271 29.3001L262.675 21L65.1223 321.724L46 618Z" fill="black"/>
<path d="M2 620.511L498.607 655.971L499.031 656L979.638 628.42L980 628.401V609.464L450.431 600.396L8.61314 600H5.38418L5.03231 602.124L2 620.511Z" fill="#F1C0C0"/>
<path opacity="0.1" d="M2 620.511L498.607 655.971L499.031 656L979.638 628.42L980 628.053V609.86H979.576L498.607 624.847L8.61314 600H8.54069L7.67136 600.531L5.03231 602.124L2 620.511Z" fill="black"/>
<path opacity="0.1" d="M2 620.821L499 656V625.123L7.67585 601L5.03471 602.581L2 620.821Z" fill="black"/>
<path d="M263 20.4259L481.997 238.783L475.227 622.875L493.83 624.961L494.14 625H512.743L514.968 255.276L925.043 382.524L931.958 609.094L946.928 610.652L952 611.181L940.261 366.81L511.583 227.003L276.53 0H263V20.4259Z" fill="#F1C0C0"/>
<path opacity="0.1" d="M513 248L514.689 255.06L925.098 382.152L932.019 608.444L947 610L935.251 377.446L513 248Z" fill="black"/>
<path opacity="0.1" d="M263 20.4272L482.088 238.798L475.315 622.913L493.925 625L499 226.228L263 0V20.4272Z" fill="black"/>
<path d="M514 402.026L664.424 429.627L664.476 429.637L927.938 478L940 473.495L939.959 472.704L939.172 457.026L514.155 377L514 402.026Z" fill="#F1C0C0"/>
<path opacity="0.1" d="M664 430L927.917 478L940 473.528L939.958 472.743L664 430Z" fill="black"/>
<path d="M674 305L678.142 512.53L680.281 619L699.134 618.424L711 618.06L707.312 308.003L699.134 305.528L697.342 305H674Z" fill="#F1C0C0"/>
<path opacity="0.1" d="M675 305V305.048L678.819 512.546L680.876 619L699 618.424V305H675Z" fill="black"/>
<path d="M384.612 358.133C385.701 358.677 386.743 359.299 387.726 359.993C388.889 360.928 389.934 361.98 390.84 363.13C395.293 368.423 399.404 374.573 398.968 381.249C398.977 382.22 398.778 383.183 398.381 384.083C397.983 384.983 397.396 385.802 396.653 386.493C394.816 387.933 392.179 388 389.771 388C387.155 388 384.404 388 382.141 386.76C379.878 385.521 377.989 383.108 375.311 383.165C374.933 383.223 374.547 383.223 374.169 383.165C373.245 382.889 373.058 381.773 372.456 381.067C371.418 379.799 369.228 380.114 367.598 380.667C365.968 381.22 364.162 382.05 362.553 381.411C361.619 380.958 360.856 380.257 360.363 379.399C356.512 373.677 355.692 366.802 354.965 360.155C354.519 356.112 351.114 342.323 360.508 345.46C364.661 346.833 368.543 349.58 372.321 351.592L384.612 358.133Z" fill="#3F3D56"/>
<path d="M374.955 359.312C375.814 359.879 376.855 360.166 377.912 360.127C378.968 360.088 379.981 359.726 380.787 359.097C382.369 357.785 383.377 355.99 383.624 354.045C384.686 353.743 385.228 355.021 385.908 355.801C387.098 357.127 389.52 357.108 390.603 358.522C391.357 359.497 391.187 360.853 391.719 361.955C392.409 363.379 394.119 364.12 395.288 365.271C396.391 366.528 397.188 367.989 397.625 369.553L399.367 374.351C400.201 376.347 400.737 378.436 400.961 380.564C401.071 381.627 400.949 382.7 400.602 383.72C400.256 384.74 399.691 385.686 398.942 386.503C396.605 388.815 392.77 389.059 389.382 388.99C388.25 389.013 387.12 388.891 386.025 388.63C383.018 387.771 381.095 384.992 380.299 382.193C379.502 379.393 379.587 376.458 379.119 373.59C378.615 370.774 377.722 368.028 376.464 365.417C375.529 363.389 372.958 360.365 373.001 358.21C373.765 358.21 374.318 358.854 374.955 359.312Z" fill="#3F3D56"/>
<path d="M379.063 349.506C378.581 348.128 378.301 346.695 378.228 345.247C378.228 342.336 379.641 339.6 381.064 337L369.28 338.504C367.857 338.688 366.269 338.96 365.465 340.075C365.159 340.628 365 341.242 365 341.865C365 342.489 365.159 343.103 365.465 343.655C366.056 344.762 366.525 345.923 366.867 347.119C366.894 348.166 367.021 349.208 367.248 350.233C367.615 350.986 368.129 351.668 368.764 352.241C372.135 355.754 374.661 359.896 377.177 364C377.105 363.884 384.28 358.654 383.992 356.947C383.827 355.977 381.754 354.812 381.094 353.881C380.183 352.529 379.498 351.053 379.063 349.506Z" fill="#BE6F72"/>
<path d="M480 312V321.43L305.326 352.926L296.265 358H265V352.687L436.619 314.355L480 312Z" fill="#F1C0C0"/>
<path opacity="0.1" d="M480 321L305.326 352.867L296.265 358H265L437.893 323.392L480 321Z" fill="black"/>
<path d="M340.23 580.611C338.274 578.401 335.575 576.873 332.571 576.277C329.567 575.681 326.435 576.052 323.685 577.329C323.097 577.587 322.578 577.965 322.166 578.435C321.126 579.795 321.792 581.669 321.885 583.349C322.125 587.447 318.628 590.777 315.486 593.642C313.8 595.176 312.083 596.817 311.324 598.905C310.564 600.992 311.126 603.643 313.166 604.731C314.056 605.147 315.024 605.398 316.017 605.469C319.343 606.074 322.753 606.163 326.11 605.731C329.429 605.139 332.686 603.381 334.122 600.526C334.399 599.752 334.857 599.046 335.464 598.458C337.295 597.108 340.105 598.691 342.186 597.73C343.903 596.933 343.976 595.681 343.996 594.03C344.059 589.466 343.33 584.3 340.23 580.611Z" fill="#4D0606"/>
<path d="M365.344 580.441C366.613 583.544 366.789 586.924 366.954 590.238C367.047 592.153 367.109 594.203 365.994 595.821C364.879 597.44 362.702 598.292 360.617 598.694C356.313 599.518 351.328 598.742 348.551 595.572C346.425 593.149 345.981 589.826 346.374 586.685C346.704 584.109 347.406 581.092 345.414 579.263C344.898 578.774 344.227 578.43 343.752 577.903C342.72 576.735 342.885 574.972 343.442 573.536C344.168 572.162 344.712 570.712 345.063 569.217C345.145 568.508 359.038 569.715 360.317 570.299C362.062 571.094 361.793 572.425 362.32 574.034C363.053 576.275 364.456 578.296 365.344 580.441Z" fill="#4D0606"/>
<path d="M367.184 441.983C369.917 443.633 370.973 446.875 371.397 449.886C372.567 458.136 370.517 466.474 370.362 474.801C370.217 486.468 373.84 498.346 370.745 509.646C368.892 516.401 370.466 524.121 368.727 530.943C368.209 532.969 367.257 534.88 366.76 536.907C365.725 541.297 366.812 545.89 368.271 550.184C368.737 551.342 369.033 552.552 369.151 553.784C369.081 555.679 368.565 557.537 367.64 559.226L361.429 572.919C360.736 574.453 358.003 574.704 356.254 574.907C352.962 575.274 349.287 575.534 346.669 573.633C344.05 571.732 343.418 568.548 343.015 565.576C342.24 559.87 341.894 554.121 341.979 548.37C342.093 546.869 341.95 545.361 341.555 543.903C340.986 542.252 339.733 540.824 339.392 539.078C338.957 536.82 340.189 534.6 340.644 532.323C340.957 530.243 340.922 528.13 340.541 526.06C340.137 522.972 339.671 519.884 339.143 516.816C338.398 512.522 339.464 508.286 340.178 503.982C340.851 499.939 339.992 495.818 339.143 491.804C339.217 495.062 338.781 498.313 337.849 501.454C337.301 502.988 336.514 504.455 336.038 506.018C333.916 513.033 338.439 520.396 337.798 527.662C337.497 531.059 336.069 534.417 336.473 537.765C336.752 540.216 337.974 542.465 338.812 544.8C339.65 547.135 340.085 549.808 338.812 551.989C335.448 557.914 337.963 565.971 340.975 572.051C341.587 573.129 342.119 574.244 342.569 575.389C343.46 578.13 342.714 581.073 342.952 583.929C342.086 584.062 341.198 584.008 340.356 583.772C339.515 583.536 338.743 583.125 338.098 582.569C337.642 582.125 337.27 581.604 336.825 581.141C335.581 580.036 334.109 579.179 332.498 578.622C331.552 578.128 330.475 577.897 329.392 577.956C328.255 578.252 327.232 578.845 326.442 579.664C325.419 580.503 324.333 581.274 323.192 581.97C322.706 582.318 322.139 582.553 321.536 582.656C321.233 582.699 320.923 582.653 320.65 582.523C320.377 582.393 320.154 582.186 320.014 581.932C319.95 581.771 319.911 581.602 319.9 581.43C319.516 578.516 319.312 575.584 319.29 572.649C319.29 567.602 312.81 564.128 311.992 559.139C311.34 555.115 312.551 551.014 312.148 546.961C311.951 544.877 311.33 542.831 311.371 540.747C311.371 539.396 311.702 538.074 311.816 536.733C311.911 535.244 311.887 533.751 311.744 532.265L311.423 527.604C311.112 523.001 310.771 518.302 308.825 514.095C306.517 509.182 305.151 503.93 304.788 498.578C304.581 495.201 304.715 491.823 304.301 488.436C303.929 485.377 303.101 482.338 303.339 479.269C303.535 476.895 304.374 474.599 304.57 472.225C304.974 467.661 303.111 463.222 301.651 458.85C300.192 454.479 299.115 449.635 301.03 445.418C301.304 444.726 301.76 444.109 302.355 443.623C303.09 443.17 303.925 442.88 304.798 442.774C322.558 439.296 340.762 438.214 358.852 439.561C361.801 439.717 364.663 440.549 367.184 441.983Z" fill="#3F3D56"/>
<path d="M308.5 340C317.613 340 325 333.284 325 325C325 316.716 317.613 310 308.5 310C299.387 310 292 316.716 292 325C292 333.284 299.387 340 308.5 340Z" fill="#BE6F72"/>
<path d="M305.354 344.337C305.591 345.232 305.591 346.168 305.354 347.063C305.095 347.688 304.73 348.269 304.275 348.782C302.68 350.737 300.916 352.56 299 354.234C299.976 356.305 301.733 357.953 303.925 358.854C306.101 359.735 308.384 360.355 310.721 360.701C311.888 360.992 313.102 361.072 314.299 360.935C315.403 360.672 316.448 360.222 317.384 359.607L326.534 354.4C327.915 353.689 329.194 352.812 330.339 351.791C332.017 350.152 332.967 347.962 332.991 345.676C333.034 345.266 332.917 344.856 332.662 344.523C332.312 344.233 331.872 344.058 331.408 344.025C328.19 343.351 325.65 340.869 324.211 338.056C322.91 335.172 322.068 332.12 321.712 329L311.955 333.885C310.505 334.617 309.066 335.35 307.565 335.985C306.608 336.395 304.676 336.737 303.997 337.567C302.701 339.101 305.015 342.491 305.354 344.337Z" fill="#BE6F72"/>
<path d="M299.416 350.846C298.029 351.915 296.947 353.29 296.265 354.849C295.629 356.779 296.265 358.814 296.84 360.724C299.534 368.866 301.592 377.181 302.998 385.603C303.86 391.391 304.179 397.266 304.599 403.122C305.462 415.065 306.714 434.107 308.387 445.973C314.545 446.233 320.55 444.545 326.657 443.928C338.07 442.789 349.823 445.394 361 442.963C358.29 432.902 355.581 415.721 352.871 405.669C351.672 401.708 350.841 397.657 350.387 393.562C350.151 390.62 350.295 387.668 350.336 384.706C350.428 378.918 350.089 373.13 349.751 367.342C349.361 360.589 348.971 353.837 347.267 347.229C347.148 346.387 346.728 345.607 346.076 345.019C345.05 344.315 343.715 344.566 342.494 344.72C338.754 345.167 334.969 344.324 331.84 342.347C330.485 341.479 328.668 340.418 327.406 341.383C326.867 341.964 326.512 342.676 326.38 343.437C325.821 344.802 324.959 346.039 323.851 347.065C322.743 348.092 321.414 348.884 319.954 349.389C317.029 350.385 313.966 350.976 310.861 351.145C309.91 351.337 308.919 351.232 308.038 350.846C306.58 350.007 306.478 346.987 304.641 346.785C303.029 346.611 300.504 349.872 299.416 350.846Z" fill="#3F3D56"/>
<path d="M323.75 374.556C319.894 371.172 318.201 366.264 315.39 362.095C313.476 359.291 311.03 356.824 308.169 354.81C306.73 353.938 305.411 352.912 304.239 351.752C303.247 350.63 302.494 349.135 300.989 348.704C300.368 348.58 299.722 348.596 299.109 348.751C298.495 348.906 297.932 349.196 297.468 349.595C296.546 350.4 295.674 351.252 294.855 352.145C290.424 356.353 282.639 356.938 279.127 361.807C278.18 362.84 277.536 364.077 277.257 365.402C276.246 372.489 278.244 379.662 282.837 385.436C283.727 386.774 285.092 387.79 286.704 388.311C286.485 390.099 286.743 391.908 287.456 393.583C289.391 399.65 291.769 405.591 294.573 411.365C293.902 413.623 293.434 415.928 293.173 418.257C292.441 424.113 293.12 430.056 292.431 435.923C291.866 440.716 290.341 445.384 290.288 450.186C290.288 450.953 290.361 451.864 291.082 452.257C291.466 452.437 291.896 452.52 292.326 452.496L305.18 452.851C312.642 453.052 320.176 453.253 327.523 451.988C328.501 451.855 329.45 451.58 330.334 451.173C332.821 449.898 333.647 447.023 334.044 444.463C334.562 441.144 334.769 437.789 334.66 434.437C336.217 438.952 338.067 443.62 342.77 445.575C345.257 446.611 348.099 446.534 350.827 446.467C356.706 446.227 362.564 445.673 368.373 444.809C368.731 444.849 369.094 444.813 369.434 444.701C369.774 444.59 370.08 444.408 370.329 444.168C370.578 443.929 370.762 443.639 370.867 443.322C370.972 443.006 370.995 442.671 370.933 442.345L370.996 437.111C371.121 426.481 368.248 416.32 367.129 405.738C366.774 402.402 366.805 399.028 365.917 395.759C365.551 394.388 365.018 393.046 364.694 391.666C364.416 390.315 364.241 388.947 364.172 387.573L363.357 377.029C362.97 372.15 362.416 367.443 362.009 362.574C361.785 357.832 361.035 353.124 359.772 348.522C358.863 345.646 356.972 342.387 353.701 342.032C351.956 341.85 350.263 342.55 348.601 343.039C344.517 344.218 340.134 344.201 336.061 342.991C334.802 342.535 333.491 342.213 332.152 342.032C331.478 341.948 330.792 342.03 330.164 342.269C329.536 342.508 328.989 342.896 328.578 343.393C328.173 344.142 327.982 344.974 328.024 345.809C327.533 355.385 326.624 365.248 323.75 374.556Z" fill="#3D0707"/>
<path d="M306.924 374.883C302.12 370.293 297.19 365.619 291 362.7C288.561 361.548 285.789 360.679 283.09 361.114C280.391 361.548 277.879 363.673 278.004 366.157C278.088 367.696 279.12 369.056 279.443 370.567C279.818 372.267 279.276 374.08 279.86 375.724C280.334 376.807 281.042 377.792 281.944 378.623L289.322 386.547C292.449 389.852 295.575 393.205 299.598 395.49C303.62 397.775 308.831 398.843 313.25 397.218C316.394 395.894 319.008 393.72 320.733 390.995C322.567 388.35 323.859 385.46 325.579 382.731C328.255 378.37 331.786 374.488 336 371.276C333.832 370.766 331.112 370.048 329.747 368.442C329.359 367.932 329.027 367.388 328.757 366.818L327.069 363.513C326.495 363.486 325.92 363.566 325.382 363.75C324.844 363.934 324.354 364.216 323.942 364.58C323.218 365.338 322.442 366.054 321.618 366.724C320.149 367.725 318.158 367.999 316.824 369.141C316.308 369.632 315.841 370.163 315.428 370.728C314.419 371.93 313.138 372.922 311.672 373.639C310.205 374.355 308.586 374.78 306.924 374.883Z" fill="#3F3D56"/>
<path d="M336.001 354.939C339.587 348.94 339.422 341.748 340.445 334.972C340.556 333.178 341.242 331.454 342.419 330.016C344.486 327.875 348.134 327.846 351.256 328.121C352.176 328.216 353.323 328.614 353.271 329.457C353.199 329.759 353.038 330.038 352.806 330.263C349.781 333.843 348.002 338.175 347.7 342.695C349.323 343.728 351.835 341.606 353.395 342.695C354.429 343.491 353.953 345.064 353.333 346.202C351.893 348.836 350.408 351.451 348.879 354.048C347.658 356.336 346.065 358.442 344.155 360.293C342.843 361.449 341.303 362.358 339.969 363.495C336.869 366.158 334.998 369.92 331.794 372.517C331.523 372.786 331.157 372.957 330.761 373C330.353 372.973 329.969 372.816 329.675 372.555C328.075 371.361 326.747 369.889 325.769 368.224C324.549 366.158 324.735 365.552 326.657 364.092C330.254 361.486 333.758 358.691 336.001 354.939Z" fill="#BE6F72"/>
<path d="M301.157 370.453C301.77 370.797 302.526 371.188 303.2 370.9C303.475 370.748 303.71 370.541 303.884 370.294C305.052 368.874 306.026 367.329 306.785 365.694C306.916 365.463 306.989 365.209 307 364.949C307 364.354 306.418 363.916 305.876 363.571C302.975 361.886 299.856 360.535 296.591 359.549C293.894 358.618 291.075 357.808 288.215 358.04C287.14 358.106 286.091 358.369 285.131 358.814C284.17 359.259 283.319 359.876 282.627 360.629C280.584 363.022 284.006 363.748 286.151 364.614C291.116 366.672 296.489 367.864 301.157 370.453Z" fill="#4D0606"/>
<path opacity="0.1" d="M298.014 386.781C297.984 387.001 298.002 387.227 298.067 387.439C298.133 387.651 298.243 387.843 298.39 388C298.649 386.626 298.309 385.174 298.577 383.79C298.971 381.709 300.839 380.142 301 378.051C297.576 377.325 298.041 384.535 298.014 386.781Z" fill="black"/>
<path opacity="0.2" d="M480 312V321.594L438.263 324L437 314.396L480 312Z" fill="black"/>
<path d="M294.026 327.545C296.638 325.572 295.126 321.437 296.895 318.788C297.924 317.34 299.662 316.577 301.37 315.929C303.43 315.036 305.638 314.469 307.901 314.252C309.034 314.151 310.178 314.288 311.246 314.653C312.314 315.017 313.28 315.6 314.072 316.358C314.741 317.063 315.193 317.921 315.821 318.655C316.598 319.511 317.611 320.156 318.752 320.521C319.892 320.887 321.119 320.96 322.301 320.732C323.669 320.446 325.088 319.484 324.996 318.188C324.841 317.399 324.407 316.682 323.761 316.148L320.82 313.128C317.477 309.697 313.764 306.057 308.858 305.2C305.443 304.6 301.946 305.448 298.654 306.467C297.327 306.877 295.836 307.487 295.466 308.735C295.219 309.593 295.589 310.526 295.373 311.394C294.951 313.118 292.565 313.7 291.454 315.148C290.343 316.596 290.683 318.312 290.364 319.912C290.045 321.513 289.119 323.076 289.006 324.734C288.934 325.734 289.479 327.593 290.693 327.955C291.907 328.317 293.275 326.354 294.026 327.545Z" fill="#3F3D56"/>
<path d="M324 316.81C323.13 312.581 321.253 308.587 318.509 305.122C316.068 301.884 312.673 299.374 308.734 297.894C306.765 297.177 304.647 296.886 302.539 297.04C300.431 297.195 298.388 297.793 296.564 298.788C293.856 300.588 291.749 303.063 290.485 305.929C287.811 311.293 286.82 317.848 289.927 323C291.166 321.597 293.292 322.231 295.171 321.722C297.524 321.097 299.516 319.636 301.756 318.723C308.517 315.945 316.775 318.194 324 316.81Z" fill="#FED253"/>
<path opacity="0.1" d="M291.28 315.839C291.05 314.229 290.9 312.36 292.18 311.215C292.244 311.145 292.325 311.089 292.417 311.052C292.509 311.015 292.609 310.997 292.71 311C292.799 311.026 292.882 311.068 292.952 311.124C293.023 311.179 293.08 311.247 293.12 311.322C293.859 312.365 294.488 313.467 295 314.614C294.255 314.46 293.475 314.51 292.762 314.757C292.049 315.004 291.435 315.437 291 316" fill="black"/>
<path opacity="0.1" d="M315.483 311.585L315.113 308.292C315.053 308.021 315.078 307.74 315.185 307.48C315.34 307.263 315.578 307.105 315.855 307.037C316.132 306.969 316.427 306.995 316.684 307.111C317.189 307.363 317.605 307.737 317.885 308.191C318.74 309.369 319.449 310.628 320 311.945C318.346 311.658 316.645 311.677 315 312" fill="black"/>
<path opacity="0.1" d="M325 451V458.573L317.811 459H280V451H325Z" fill="black"/>
<path d="M325 450.685V459H280.423L162 320.54V314H186.826L325 450.685Z" fill="#F1C0C0"/>
<path opacity="0.1" d="M325 450.685V459H280.423L162 320.54V314H186.826L325 450.685Z" fill="black"/>
<path opacity="0.1" d="M325 450.685V459H280.423L162 320.54V314L281.064 450.685H325Z" fill="black"/>
<path d="M177.363 588.669C177.441 589.069 177.432 589.479 177.335 589.876C177.239 590.272 177.058 590.645 176.804 590.971C176.549 591.298 176.227 591.571 175.857 591.773C175.486 591.976 175.076 592.103 174.652 592.148C171.775 593.074 168.722 593.991 166.684 596.09C164.645 598.189 164.242 602.082 166.684 603.787C167.932 604.504 169.365 604.876 170.823 604.861C175.511 605.167 180.395 605.108 184.648 603.215C187.69 601.875 190.557 599.589 193.899 599.796C195.627 599.894 197.469 600.663 199.011 599.914C200.553 599.165 200.988 597.076 200.998 595.331C201.037 591.69 200.461 588.066 199.291 584.599C199.135 584.126 192.554 583.761 191.768 583.613L183.789 582.628C182.278 582.44 179.019 581.356 177.829 582.559C176.639 583.761 177.363 587.24 177.363 588.669Z" fill="#4D0606"/>
<path d="M225.264 564.923C225.586 566.612 226.11 568.26 226.825 569.836C227.882 572.387 229.235 575.096 231.823 576.334C234.173 577.45 237.057 577.047 239.448 575.987C240.445 575.595 241.32 574.965 241.986 574.159C242.757 572.883 243.102 571.415 242.974 569.949C242.974 566.32 242.747 562.57 240.999 559.345C239.497 556.532 236.88 554.113 236.84 551L227.842 552.65C227.36 552.694 226.902 552.866 226.518 553.147C226.233 553.432 226.035 553.785 225.946 554.169C224.985 557.678 224.753 561.331 225.264 564.923Z" fill="#4D0606"/>
<path d="M112.179 473.516C111.781 476.541 111.948 479.782 113.71 482.394C115.471 485.006 119.183 486.735 122.391 485.692C122.556 485.654 122.71 485.587 122.845 485.495C122.98 485.403 123.093 485.288 123.178 485.156C123.263 484.839 123.214 484.504 123.041 484.217C121.625 480.83 121.741 477.081 123.366 473.77C123.576 473.337 124.027 472.83 124.52 472.999C124.726 473.093 124.892 473.245 124.991 473.431C125.499 474.218 125.753 475.116 125.725 476.024C125.577 476.848 125.549 477.684 125.641 478.514C125.841 479.322 126.805 480.083 127.644 479.735C127.887 479.602 128.096 479.426 128.26 479.217C128.424 479.009 128.539 478.773 128.598 478.523C130.936 472.464 129.877 465.84 128.808 459.499C128.817 459.353 128.79 459.208 128.729 459.072C128.668 458.937 128.575 458.815 128.456 458.716C128.337 458.616 128.195 458.542 128.041 458.497C127.886 458.452 127.722 458.438 127.56 458.456C122.611 458.014 119.906 456.953 117.075 461.077C114.643 464.553 112.179 469.335 112.179 473.516Z" fill="#4D0606"/>
<path d="M169.018 457.761C167.561 463.355 166.094 469.018 166 474.766C166.026 478.347 166.318 481.922 166.874 485.466L167.967 493.791C168.342 496.598 168.706 499.395 169.237 502.174C169.575 503.605 169.76 505.064 169.788 506.528C169.686 507.973 169.439 509.405 169.049 510.806C168.395 513.75 168.029 516.742 167.957 519.747C167.842 524.553 168.487 529.36 168.893 534.167C169.704 543.745 169.582 553.371 168.529 562.929C168.109 565.509 168.715 568.143 170.236 570.341C170.853 571.034 171.361 571.805 171.745 572.629C172.526 574.831 170.704 577.032 170.236 579.291C169.936 581.053 170.406 582.852 171.542 584.294C172.677 585.736 174.386 586.703 176.293 586.982C184.619 587.895 193.174 587.482 200.678 591C201.469 588.866 199.741 586.443 200.532 584.271C201.032 582.925 202.406 582.05 203.342 580.916C204.601 579.187 205.228 577.133 205.132 575.052C205.169 572.335 204.646 569.637 203.592 567.102C202.707 564.987 201.438 562.9 201.511 560.632C201.511 559.517 201.937 558.344 201.448 557.315C201.113 556.724 200.657 556.199 200.106 555.767C196.995 552.62 195.084 548.62 194.662 544.376C194.257 540.164 194.403 535.923 195.1 531.744C195.609 527.764 196.296 523.563 199.034 520.458C197.764 511.043 198.51 501.489 201.23 492.339C201.5 491.493 201.927 490.513 202.864 490.311C203.236 490.276 203.611 490.324 203.959 490.451C204.307 490.578 204.617 490.781 204.862 491.042C206.496 492.455 207.276 494.502 207.984 496.463C208.765 498.588 209.556 500.857 208.962 503.029C208.713 503.991 208.213 504.837 207.922 505.759C207.288 507.614 207.399 509.617 208.234 511.402C208.641 512.055 208.896 512.778 208.983 513.527C208.887 514.17 208.676 514.793 208.359 515.373C207.973 516.51 207.85 517.71 207.999 518.894C208.148 520.078 208.565 521.22 209.223 522.246C210.549 524.288 212.186 526.143 214.083 527.755C213.177 531.444 213.411 535.295 214.759 538.867C214.857 539.028 214.919 539.205 214.942 539.389C214.965 539.572 214.949 539.757 214.895 539.934C214.707 540.3 214.229 540.434 213.854 540.694C212.813 541.482 213.458 542.972 214.156 544.001C216.067 546.824 218.177 549.528 220.473 552.095C222.555 554.393 222.367 558.825 225.469 559.651C226.772 559.911 228.12 559.911 229.424 559.651C232.483 559.219 235.897 558.402 237.396 555.902C238.01 554.873 238.26 553.624 239.217 552.855C240.175 552.086 241.413 551.951 241.944 551.028C242.475 550.105 241.882 548.894 242.058 547.827C242.235 546.76 243.245 545.904 243.568 544.78C244.338 542.184 241.059 540.05 240.612 537.397C239.967 533.551 245.212 530.667 244.993 526.822C244.535 518.468 244.244 510.076 243.776 501.722C243.188 494.239 243.104 486.729 243.526 479.236C243.89 474.574 244.567 469.691 242.714 465.355C240.05 459.241 232.702 455.809 225.594 455.155C218.485 454.502 211.398 456.059 204.352 457.078C192.658 458.743 180.777 458.972 169.018 457.761Z" fill="#3F3D56"/>
<path d="M190.5 366C199.613 366 207 359.06 207 350.5C207 341.94 199.613 335 190.5 335C181.387 335 174 341.94 174 350.5C174 359.06 181.387 366 190.5 366Z" fill="#FBBEBE"/>
<path d="M183.875 368.806C183.313 370.039 182.369 371.082 181.167 371.8C179.965 372.517 178.56 372.874 177.139 372.824C176.54 375.159 177.974 377.513 179.614 379.351C183.02 383.089 187.421 385.902 192.364 387.501C197.307 389.1 202.613 389.427 207.735 388.447C209.727 388.111 211.618 387.367 213.274 386.268C215.506 384.511 217.005 382.063 217.503 379.361C217.978 376.678 218.113 373.951 217.906 371.238C217.964 370.702 217.801 370.166 217.452 369.74C217.039 369.439 216.529 369.281 216.008 369.292C212.521 369.001 208.88 368.874 205.816 367.259C202.752 365.644 200.576 361.996 202.051 359C201.813 359.467 195.789 359.691 194.995 359.788C192.509 360.119 190.023 360.488 187.547 360.916C186.357 360.978 185.182 361.187 184.05 361.539C182.554 362.269 183.111 361.909 183.462 363.232C183.988 365.255 184.762 366.705 183.875 368.806Z" fill="#FBBEBE"/>
<path d="M196.166 378.148C193.924 378.172 191.686 377.944 189.504 377.47C187.3 376.996 185.358 375.804 184.037 374.114C183.268 373.043 182.769 371.695 181.542 371.092C179.536 370.136 177.25 371.752 175.649 373.234C174.192 374.695 172.503 375.946 170.639 376.944C168.415 378.024 165.817 378.407 163.717 379.678C162.077 380.818 160.669 382.217 159.56 383.809L144.832 402.262C138.918 409.681 133.773 417.646 128.504 425.476C123.941 432.255 121.55 440.057 118.11 447.371C117.837 447.819 117.725 448.334 117.788 448.844C117.912 449.341 118.567 449.743 119.025 449.456C117.476 450.871 118.837 453.28 118.474 455.269C118.06 456.66 117.198 457.904 116 458.835C118.288 458.561 120.61 458.661 122.86 459.132C125.185 459.738 127.379 460.708 129.345 462C130.603 461.818 130.489 459.763 131.424 458.998C131.985 458.548 132.817 458.606 133.555 458.472C136.33 457.975 137.432 454.906 139.562 453.175C141.34 451.731 143.855 451.263 145.736 449.905C148.792 447.696 149.447 443.767 151.047 440.506C152.409 437.743 154.55 435.334 155.745 432.504C156.525 430.668 156.899 428.679 158.011 426.987C159.788 424.252 163.135 422.799 166.326 421.489C168.342 420.657 170.483 419.797 172.656 419.931C172.541 424.377 171.928 428.756 172.978 433.097C173.342 434.626 173.851 436.118 174.287 437.638C176.273 444.484 176.74 451.617 176.834 458.673C181.609 457.668 186.487 457.129 191.385 457.066C195.241 456.961 199.087 457.42 202.943 457.353C207.516 457.277 212.037 456.464 216.61 456.177C221.184 455.89 225.965 456.177 230.008 458.089C229.679 452.03 229.864 445.956 230.559 439.923L231.66 430.419C231.909 427.658 232.371 424.917 233.043 422.216C233.645 420.036 234.519 417.932 235.184 415.762C237.522 408.113 237.096 399.948 236.649 391.983C236.421 387.891 234.706 383.866 232.689 380.223C231.959 378.87 231.126 377.566 230.195 376.322C227.758 373.234 224.511 370.764 220.756 369.142C217.001 367.52 212.861 366.8 208.722 367.048C208.193 367.063 207.672 367.166 207.183 367.354C206.306 367.87 205.621 368.621 205.219 369.505C203.068 373.06 199.948 376.039 196.166 378.148Z" fill="#3F3D56"/>
<path d="M176.049 355.313C176.512 354.367 177.758 354.017 178.52 353.26C179.982 351.822 179.323 349.523 179.55 347.583C179.92 344.745 182.484 342.37 185.418 341.358C188.411 340.475 191.595 340.29 194.685 340.819C196.172 340.918 197.609 341.357 198.865 342.096C199.4 342.455 199.894 342.919 200.399 343.25C201.319 343.761 202.419 343.921 203.466 343.697C204.512 343.472 205.422 342.881 206 342.049C202.355 338.018 198.319 333.761 192.78 332.521C190.88 332.165 188.943 331.997 187.004 332.02C184.44 331.973 181.794 331.935 179.426 332.834C176.203 334.054 173.938 336.864 172.775 339.891C171.757 342.96 171.213 346.145 171.158 349.352C170.947 351.492 170.947 353.646 171.158 355.786C171.556 358.708 172.738 361.494 174.597 363.894C174.849 364.266 175.204 364.57 175.627 364.774C180.322 366.666 175.668 356.098 176.049 355.313Z" fill="#3F3D56"/>
<path d="M205 339.731C204.432 335.198 200.963 331.455 197.277 328.442C194.307 325.831 190.768 323.845 186.901 322.62C183.009 321.552 178.528 321.783 175.193 323.948C172.509 325.69 170.805 328.462 169.494 331.252C167.772 334.546 166.919 338.175 167.006 341.838C167.264 345.476 169.164 349.162 172.55 351C173.769 349.326 175.885 348.459 177.919 347.776C186.784 344.641 195.824 341.955 205 339.731Z" fill="#FED253"/>
<path opacity="0.1" d="M174.125 338C174.456 338 174.673 338.273 174.838 338.497C175.681 339.547 176.404 340.654 177 341.807C175.79 342.014 173.711 342.245 173.111 341.393C172.791 340.963 173.173 337.959 174.125 338Z" fill="black"/>
<path opacity="0.1" d="M197.585 335.939C197.316 336.169 197.001 335.699 197.001 335.359V331.478C196.994 331.37 197.021 331.263 197.08 331.168C197.126 331.121 197.183 331.082 197.247 331.054C197.311 331.027 197.38 331.011 197.451 331.008C198.36 330.918 199.113 331.608 199.697 332.268C200.584 333.338 201.355 334.48 202 335.679L197.248 335.549" fill="black"/>
<path d="M252.042 397.657C252.992 396.819 254.005 396.046 255.075 395.345C257.932 393.57 261.387 392.87 264.595 391.738C267.803 390.607 271.062 388.774 272.31 385.801C272.935 383.941 273.138 381.982 272.908 380.046C272.938 379.235 272.783 378.428 272.454 377.676C272.062 377.013 271.503 376.447 270.825 376.026C266.472 373.034 260.634 372.794 255.23 373.101C243.314 373.788 231.635 376.499 220.77 381.101C220.195 381.277 219.692 381.612 219.326 382.06C219.114 382.476 219.018 382.934 219.047 383.393C218.855 386.222 219.251 389.059 220.213 391.748C221.636 395.163 224.565 397.916 225.793 401.398C226.35 402.961 226.535 404.621 227.02 406.194C227.418 407.818 228.451 409.247 229.918 410.203C233.993 412.467 237.84 409.426 240.666 407.067L252.042 397.657Z" fill="#3F3D56"/>
<path d="M198.863 410.97L193.648 400.32C192.883 398.844 192.223 397.322 191.672 395.765C191.076 393.906 190.788 391.98 190.232 390.112C188.401 383.891 183.782 378.71 181.529 372.615C181.387 372.064 181.097 371.557 180.686 371.141C180.357 370.924 179.981 370.776 179.585 370.71C179.188 370.643 178.781 370.659 178.392 370.756C175.244 371.267 172.786 373.51 169.905 374.781C168.568 375.359 167.128 375.744 165.79 376.409C165.122 376.705 164.53 377.133 164.054 377.663C163.578 378.193 163.23 378.813 163.033 379.481C162.715 380.954 163.496 382.37 164.155 383.804C166.953 389.717 167.591 396.323 167.714 402.794C167.807 407.147 167.57 411.818 164.823 415.313C159.546 422.054 162.92 431.953 164.895 440.11C165.132 441.073 165.41 442.113 165.574 443.134C165.748 444.411 165.828 445.698 165.811 446.986C165.811 451.309 165.554 455.768 163.62 459.687C165.529 460.638 167.634 461.196 169.792 461.324C175.765 462.037 181.763 462.538 187.784 462.827C189.67 462.993 191.573 462.902 193.431 462.557C195.639 461.998 197.584 460.768 198.961 459.059C200.338 457.35 201.067 455.26 201.034 453.12C201.363 455.787 201.97 458.686 204.037 460.535C206.105 462.384 209.119 462.663 211.927 462.807C219.853 463.201 227.8 462.991 235.69 462.181C236.194 462.16 236.689 462.052 237.151 461.864C238.674 461.151 238.756 459.186 238.632 457.607C238.406 454.651 238.169 451.694 237.789 448.757C237.466 446.885 237.301 444.992 237.295 443.095C237.452 441.144 237.796 439.21 238.324 437.317C239.702 431.308 240.793 425.174 240.33 419.021C240.147 417.522 240.081 416.012 240.134 414.504C240.402 411.105 242.315 407.869 241.955 404.489C240.926 394.551 240.093 384.353 237.13 374.762C236.596 373.048 235.917 371.209 234.322 370.227C232.265 368.936 229.374 369.61 227.018 368.792C225.913 368.31 224.862 367.726 223.881 367.049C221.749 365.801 219.306 365.097 216.793 365.007C214.9 364.94 212.792 365.335 211.65 366.76C211.121 367.562 210.771 368.456 210.621 369.389C209.129 375.263 207.381 381.07 205.632 386.876L203.955 392.442L199.46 407.388C199.017 408.977 199.316 409.468 198.863 410.97Z" fill="#3D0707"/>
<path d="M224.779 353L325 450.714V459H280.313L205 367.804" fill="#F1C0C0"/>
<path opacity="0.1" d="M224.779 353L325 450.714V459H280.313L205 367.804" fill="black"/>
<path opacity="0.1" d="M206.596 366L206.917 366.106L280.956 450.668H325V459H280.313L205 367.295L206.596 366Z" fill="black"/>
<path d="M218.765 368.137C215.213 369.652 211.266 371.592 210.2 375.235C209.99 375.874 209.944 376.554 210.068 377.215C210.328 377.991 210.823 378.673 211.488 379.17C212.153 379.666 212.956 379.955 213.793 379.997C215.464 380.036 217.125 379.739 218.674 379.125L239.631 372.374C240.199 372.196 240.849 371.928 240.991 371.384C241.027 371.042 240.956 370.696 240.788 370.394C240.138 368.85 239.499 365.692 238.139 364.613C237.023 363.742 234.81 364.049 233.46 364.068C228.264 364.108 223.383 366.157 218.765 368.137Z" fill="#4D0606"/>
<path d="M237.609 372.745C241.244 372.735 244.859 373.243 248.32 374.25C251.797 375.272 254.877 377.177 257.193 379.738C257.867 380.454 258.347 381.303 258.593 382.218C258.802 383.164 262.209 383.732 261.457 384.375C263.745 384.044 263.202 385.019 265.522 385C267.842 384.981 270.35 384.441 271.74 382.766C272.705 381.39 273.136 379.762 272.962 378.139C272.993 377.016 272.758 375.899 272.273 374.865C271.228 372.878 268.824 371.808 266.609 370.89L247.944 363.159C246.861 362.637 245.699 362.264 244.495 362.052C243.482 361.965 242.462 361.987 241.454 362.118L233 362.998C234.849 364.081 236.354 365.582 237.368 367.353C238.381 369.124 238.867 371.103 238.779 373.095" fill="#3F3D56"/>
</svg>
