<svg width="414" height="653" viewBox="0 0 414 653" fill="none" xmlns="http://www.w3.org/2000/svg">
<g opacity="0.09">
<path opacity="0.2" d="M377.679 456.157C374.887 452.629 372.36 448.927 370.116 445.077L426.399 438.178L365.822 436.823C360.411 424.912 357.673 412.101 357.777 399.174C357.88 386.246 360.822 373.475 366.422 361.639L446.347 403.161L373.157 349.81C380.558 338.744 390.333 329.212 401.873 321.809C413.414 314.405 426.472 309.288 440.235 306.777C453.998 304.267 468.17 304.415 481.869 307.214C495.567 310.013 508.498 315.403 519.855 323.047C531.213 330.691 540.753 340.425 547.883 351.644C555.012 362.863 559.577 375.325 561.293 388.254C563.009 401.183 561.84 414.301 557.858 426.792C553.877 439.283 547.168 450.879 538.15 460.856C542.508 466.347 546.217 472.259 549.21 478.489L475.327 511.439L553.659 489.53C558.595 504.631 559.399 520.636 555.997 536.098C552.596 551.559 545.096 565.989 534.177 578.08C545.548 592.413 552.347 609.427 553.797 627.18C555.247 644.932 551.289 662.705 542.376 678.466C533.462 694.228 519.954 707.341 503.394 716.308C486.834 725.275 467.892 729.733 448.733 729.172C429.573 728.611 410.971 723.053 395.052 713.136C379.134 703.218 366.541 689.34 358.714 673.088C350.888 656.837 348.143 638.867 350.794 621.235C353.445 603.603 361.385 587.02 373.706 573.381C360.125 556.254 353.134 535.386 353.855 514.126C354.575 492.866 362.966 472.447 377.679 456.147V456.157Z" fill="#6C63FF"/>
<path opacity="0.1" d="M558.015 520.117C557.337 541.381 548.952 561.811 534.219 578.099C545.59 592.432 552.389 609.447 553.839 627.199C555.289 644.951 551.331 662.724 542.418 678.486C533.505 694.247 519.996 707.361 503.436 716.327C486.876 725.294 467.934 729.752 448.775 729.191C429.616 728.63 411.013 723.073 395.095 713.155C379.176 703.237 366.583 689.359 358.757 673.107C350.93 656.856 348.185 638.887 350.836 621.255C353.488 603.622 361.427 587.039 373.748 573.4C360.567 556.863 558.378 509.479 558.015 520.117Z" fill="black"/>
<path opacity="0.1" d="M551 645.89C551 652.494 526.647 658.682 484.15 664H-319.661C-355.424 664.071 -390.569 655.294 -421.524 638.561L-422 638.31C-409.787 634.152 -387.742 630.275 -357.738 626.775L-356.392 626.62C-342.937 625.083 -327.899 623.623 -311.464 622.241C-311.05 622.241 -310.625 622.183 -310.211 622.134C-297.17 621.051 -283.298 620.036 -268.595 619.089C-268.129 619.089 -267.673 619.011 -267.208 618.992C-261.536 618.612 -255.747 618.251 -249.841 617.909L-247.564 617.774C-204.56 615.279 -155.678 613.287 -102.666 611.972H-102.604C-95.1793 611.779 -87.6757 611.608 -80.0927 611.46C-71.661 611.273 -63.1258 611.109 -54.4871 610.967C-47.8942 610.832 -41.2186 610.735 -34.5222 610.638H-34.367C-4.15582 610.213 27.0594 610 58.9784 610C137.906 610 212.508 611.344 278.612 613.761H278.799C288.962 614.129 298.94 614.535 308.669 614.95L316.948 615.318C327.926 615.808 338.621 616.333 349.033 616.894C471.472 623.401 551 633.969 551 645.89Z" fill="#6C63FF"/>
<g opacity="0.2">
<path opacity="0.2" d="M152.808 606.023C152.775 607.059 152.647 608.091 152.426 609.107C145.225 608.044 137.982 607.083 130.698 606.224C130.698 605.955 130.698 605.677 130.698 605.398C130.766 602.517 131.659 599.704 133.285 597.249C135.416 594.117 138.655 592.156 142.224 592.262C145.794 592.368 148.887 594.511 150.801 597.749C152.249 600.293 152.942 603.148 152.808 606.023Z" fill="#3F3D56"/>
<path opacity="0.2" d="M153.403 589.602C153.656 582.17 148.907 576.001 142.796 575.821C136.685 575.642 131.526 581.521 131.273 588.952C131.02 596.384 135.769 602.554 141.88 602.733C147.991 602.913 153.15 597.034 153.403 589.602Z" fill="#3F3D56"/>
<path opacity="0.2" d="M153.967 573.15C154.22 565.719 149.471 559.549 143.36 559.37C137.249 559.19 132.09 565.069 131.837 572.501C131.584 579.932 136.334 586.102 142.445 586.282C148.556 586.461 153.714 580.582 153.967 573.15Z" fill="#3F3D56"/>
<path opacity="0.2" d="M154.522 556.699C154.774 549.267 150.025 543.097 143.914 542.918C137.803 542.739 132.644 548.618 132.392 556.049C132.139 563.481 136.888 569.651 142.999 569.83C149.11 570.009 154.269 564.13 154.522 556.699Z" fill="#3F3D56"/>
<path opacity="0.2" d="M155.076 540.247C155.328 532.816 150.579 526.646 144.468 526.466C138.357 526.287 133.198 532.166 132.946 539.598C132.693 547.029 137.442 553.199 143.553 553.378C149.664 553.558 154.823 547.679 155.076 540.247Z" fill="#3F3D56"/>
<path opacity="0.2" d="M106.354 426.097C104.897 424.265 103.583 422.338 102.422 420.332L131.661 416.747L100.187 416.046C97.3786 409.858 95.9584 403.204 96.0136 396.489C96.0687 389.774 97.598 383.141 100.508 376.994L142.017 398.567L103.995 370.853C107.83 365.091 112.904 360.126 118.899 356.267C124.893 352.408 131.68 349.738 138.836 348.425C145.991 347.112 153.361 347.183 160.486 348.634C167.611 350.085 174.336 352.885 180.244 356.859C186.151 360.832 191.112 365.895 194.818 371.729C198.524 377.564 200.895 384.046 201.783 390.77C202.671 397.493 202.056 404.315 199.978 410.809C197.899 417.302 194.402 423.328 189.703 428.509C191.97 431.359 193.895 434.43 195.446 437.667L157.071 454.772L197.763 443.404C200.326 451.257 200.739 459.58 198.965 467.619C197.19 475.658 193.285 483.158 187.603 489.442C193.511 496.887 197.044 505.725 197.798 514.947C198.552 524.169 196.496 533.401 191.866 541.589C187.237 549.777 180.219 556.59 171.617 561.248C163.015 565.906 153.175 568.222 143.222 567.93C133.27 567.639 123.606 564.752 115.337 559.6C107.068 554.448 100.527 547.238 96.4614 538.796C92.3961 530.353 90.971 521.018 92.349 511.859C93.7269 502.7 97.8523 494.085 104.253 487.001C97.1952 478.104 93.5619 467.262 93.9372 456.217C94.3125 445.171 98.6745 434.563 106.323 426.097H106.354Z" fill="#6C63FF"/>
<path opacity="0.1" d="M200.019 459.326C199.656 470.378 195.281 480.992 187.603 489.442C193.511 496.887 197.044 505.725 197.798 514.947C198.552 524.169 196.496 533.401 191.866 541.589C187.237 549.777 180.219 556.59 171.617 561.248C163.015 565.906 153.175 568.222 143.222 567.93C133.27 567.639 123.606 564.752 115.337 559.6C107.068 554.448 100.527 547.238 96.4614 538.796C92.3961 530.353 90.971 521.018 92.349 511.859C93.7269 502.7 97.8523 494.086 104.253 487.001C97.4558 478.42 200.205 453.801 200.019 459.326Z" fill="black"/>
</g>
<g opacity="0.2">
<path opacity="0.2" d="M-50.9098 426.097C-52.3668 424.265 -53.6807 422.338 -54.8413 420.332L-25.6028 416.747L-57.0762 416.046C-59.8848 409.858 -61.305 403.204 -61.2499 396.489C-61.1947 389.774 -59.6654 383.141 -56.7554 376.994L-15.2461 398.567L-53.2687 370.853C-49.433 365.091 -44.3594 360.126 -38.3647 356.267C-32.3699 352.408 -25.5829 349.738 -18.4275 348.425C-11.2721 347.112 -3.90192 347.183 3.2226 348.634C10.3471 350.085 17.073 352.885 22.9801 356.859C28.8873 360.832 33.8488 365.895 37.5548 371.729C41.2609 377.564 43.6318 384.046 44.5195 390.77C45.4072 397.493 44.7927 404.315 42.7143 410.809C40.6359 417.302 37.1383 423.328 32.4399 428.509C34.7061 431.359 36.6315 434.43 38.1821 437.667L-0.192299 454.772L40.4997 443.404C43.0622 451.257 43.4752 459.58 41.7011 467.619C39.9271 475.658 36.022 483.158 30.3396 489.442C36.2475 496.887 39.7804 505.725 40.5343 514.947C41.2883 524.169 39.2328 533.401 34.603 541.589C29.9732 549.777 22.956 556.59 14.3538 561.248C5.7515 565.906 -4.08852 568.222 -14.0411 567.93C-23.9937 567.639 -33.6572 564.752 -41.9264 559.6C-50.1956 554.448 -56.7368 547.238 -60.8021 538.796C-64.8673 530.353 -66.2924 521.018 -64.9145 511.859C-63.5365 502.7 -59.4111 494.085 -53.0101 487.001C-60.0682 478.104 -63.7015 467.262 -63.3263 456.217C-62.951 445.171 -58.5889 434.563 -50.9408 426.097H-50.9098Z" fill="#6C63FF"/>
<path opacity="0.1" d="M42.7551 459.326C42.3929 470.378 38.0174 480.992 30.3395 489.442C36.2474 496.887 39.7803 505.725 40.5343 514.947C41.2882 524.169 39.2327 533.401 34.603 541.589C29.9732 549.777 22.956 556.59 14.3537 561.248C5.75146 565.906 -4.08855 568.222 -14.0412 567.93C-23.9938 567.639 -33.6572 564.752 -41.9264 559.6C-50.1956 554.448 -56.7368 547.238 -60.8021 538.796C-64.8673 530.353 -66.2924 521.018 -64.9145 511.859C-63.5365 502.7 -59.4111 494.086 -53.0101 487.001C-59.8076 478.42 42.9413 453.801 42.7551 459.326Z" fill="black"/>
</g>
<path d="M-420 620.511L76.6067 655.971L77.031 656L557.638 628.42L558 628.401V609.464L28.4312 600.396L-413.387 600H-416.616L-416.968 602.124L-420 620.511Z" fill="#F1C0C0"/>
<path opacity="0.1" d="M-420 620.511L76.6067 655.971L77.031 656L557.638 628.42L558 628.053V609.86H557.576L76.6067 624.847L-413.387 600H-413.459L-414.329 600.531L-416.968 602.124L-420 620.511Z" fill="black"/>
<path opacity="0.1" d="M-420 620.821L77 656V625.123L-414.324 601L-416.965 602.581L-420 620.821Z" fill="black"/>
<path d="M-159 20.4259L59.9972 238.783L53.227 622.875L71.8295 624.961L72.1401 625H90.7427L92.9684 255.276L503.043 382.524L509.958 609.094L524.928 610.652L530 611.181L518.261 366.81L89.5833 227.003L-145.47 0H-159V20.4259Z" fill="#F1C0C0"/>
<path opacity="0.1" d="M91 248L92.6888 255.06L503.098 382.152L510.019 608.444L525 610L513.251 377.446L91 248Z" fill="black"/>
<path opacity="0.1" d="M-159 20.4272L60.0881 238.798L53.3151 622.913L71.9254 625L77 226.228L-159 0V20.4272Z" fill="black"/>
<path d="M92 402.026L242.424 429.627L242.476 429.637L505.938 478L518 473.495L517.959 472.704L517.172 457.026L92.1553 377L92 402.026Z" fill="#F1C0C0"/>
<path d="M58 312V321.43L-116.674 352.926L-125.735 358H-157V352.687L14.6189 314.355L58 312Z" fill="#F1C0C0"/>
<path opacity="0.1" d="M58 321L-116.674 352.867L-125.735 358H-157L15.8927 323.392L58 321Z" fill="black"/>
<path opacity="0.2" d="M58 312V321.594L16.2626 324L15 314.396L58 312Z" fill="black"/>
</g>
</svg>
