<svg width="23" height="20" viewBox="0 0 23 20" fill="none" xmlns="http://www.w3.org/2000/svg">
<path d="M16.7708 3.75C14.9021 3.75 12.8896 4.08333 11.5 5C10.1104 4.08333 8.09791 3.75 6.22916 3.75C4.36041 3.75 2.34791 4.08333 0.958328 5V17.2083C0.958328 17.75 1.65791 17.5833 1.67708 17.5833C2.97083 17.0417 4.83958 16.6667 6.22916 16.6667C8.09791 16.6667 10.1104 17 11.5 17.9167C12.7937 17.2083 15.1417 16.6667 16.7708 16.6667C18.3521 16.6667 19.9812 16.9167 21.3229 17.5417C21.7158 17.7167 22.0417 17.3833 22.0417 17.1667V5C20.6137 4.06667 18.5629 3.75 16.7708 3.75ZM20.125 15.4167C19.0708 15.125 17.9208 15 16.7708 15C15.1417 15 12.7937 15.5417 11.5 16.25V6.66667C12.7937 5.95833 15.1417 5.41667 16.7708 5.41667C17.9208 5.41667 19.0708 5.54167 20.125 5.83333V15.4167Z" fill="white" fill-opacity="0.51"/>
</svg>
