<svg width="64" height="50" viewBox="0 0 64 50" fill="none" xmlns="http://www.w3.org/2000/svg">
<path d="M47.2634 28.7769L39.0782 34.6251L62.2149 51.1562L70.4 45.3079L47.2634 28.7769Z" fill="#9D1111"/>
<path d="M53.4216 20.3667C60.8686 20.3667 66.9265 16.0384 66.9265 10.7175C66.9265 9.1185 66.3092 7.62977 65.3445 6.30645L54.9264 13.7501L49.1772 9.64232L59.5953 2.19864C57.7432 1.50941 55.6596 1.06831 53.4216 1.06831C45.9746 1.06831 39.9167 5.39667 39.9167 10.7175C39.9167 11.8479 40.2254 12.923 40.727 13.9155L33.5887 19.0158L26.7205 14.1085L29.46 12.1511L24.0195 8.26386L32.1996 2.41919C27.6851 -0.806398 20.3539 -0.806398 15.8394 2.41919L2.18012 12.1787L7.62067 16.0659H-3.26043L-6 18.0233L7.65925 27.7828L10.3988 25.8254V18.0233L15.8394 21.9106L18.5789 19.9532L25.4472 24.8605L-3.14468 45.2893L5.03544 51.1339L48.9457 19.7878C50.3348 20.1462 51.8396 20.3667 53.4216 20.3667Z" fill="#9D1111"/>
</svg>
